<?xml version="1.0" encoding="utf-8"?>
<!-- Generator: Adobe Illustrator 19.0.0, SVG Export Plug-In . SVG Version: 6.00 Build 0)  -->
<svg version="1.1" id="Layer_1" xmlns="http://www.w3.org/2000/svg" xmlns:xlink="http://www.w3.org/1999/xlink" x="0px" y="0px"
	 viewBox="0 0 200 200" style="enable-background:new 0 0 200 200;" xml:space="preserve">
<style type="text/css">
	.st0{fill:#FF6666;}
	.st1{fill:#C91F1F;}
	.st2{fill:#FF3333;}
	.st3{fill:#FF9999;}
</style>
<g id="XMLID_80_">
	<polygon id="XMLID_84_" class="st0" points="186.8,24.6 200,40.6 199.8,40.8 199.8,75.1 190,94.2 177.6,129.7 131.8,101.8 
		116.9,61.1 114.9,50.2 112.2,35.5 156.9,20.5 	"/>
	<polygon id="XMLID_83_" class="st1" points="177.6,129.7 172,145.7 156,171.6 133.5,190.1 98.1,183.2 79,137.1 131.8,101.8 	"/>
	<polygon id="XMLID_82_" class="st2" points="116.9,61.1 131.8,101.8 79,137.1 98.1,183.2 70.3,177.8 27.5,147.9 16.3,125.4 
		16.3,125.4 55.8,65.9 114.9,50.2 	"/>
	<polygon id="XMLID_81_" class="st3" points="112.2,35.5 114.9,50.2 55.8,65.9 16.3,125.4 2.8,98 4.7,53.8 38,14.7 76.5,4.3 
		110.2,24.6 	"/>
</g>
</svg>
