<?xml version="1.0" encoding="utf-8"?>
<!-- Generator: Adobe Illustrator 19.0.0, SVG Export Plug-In . SVG Version: 6.00 Build 0)  -->
<svg version="1.1" id="Left" xmlns="http://www.w3.org/2000/svg" xmlns:xlink="http://www.w3.org/1999/xlink" x="0px" y="0px"
	 viewBox="0 0 1280 800" style="enable-background:new 0 0 1280 800;" xml:space="preserve">
<style type="text/css">
	.st0{fill:url(#XMLID_2_);}
	.st1{fill:url(#XMLID_3_);}
	.st2{fill:url(#XMLID_4_);}
	.st3{fill:url(#XMLID_5_);}
	.st4{fill:url(#XMLID_6_);}
	.st5{fill:url(#XMLID_7_);}
	.st6{fill:url(#XMLID_8_);}
	.st7{fill:url(#XMLID_9_);}
	.st8{fill:url(#XMLID_10_);}
	.st9{fill:none;stroke:#B200B7;stroke-width:4;stroke-miterlimit:10;}
</style>
<linearGradient id="XMLID_2_" gradientUnits="userSpaceOnUse" x1="-167.5366" y1="-34.215" x2="-61.7666" y2="-34.215">
	<stop  offset="2.043588e-007" style="stop-color:#000000"/>
	<stop  offset="1" style="stop-color:#7B0C7C"/>
	<stop  offset="1" style="stop-color:#770578"/>
</linearGradient>
<polygon id="XMLID_744_" class="st0" points="-61.8,-10.6 -62,-10 -79.5,-10 -79.5,-10.5 -167.5,-58.4 "/>
<linearGradient id="XMLID_3_" gradientUnits="userSpaceOnUse" x1="231.89" y1="387.535" x2="361.5" y2="387.535">
	<stop  offset="2.043588e-007" style="stop-color:#000000"/>
	<stop  offset="1" style="stop-color:#7B0C7C"/>
	<stop  offset="1" style="stop-color:#770578"/>
</linearGradient>
<polygon id="XMLID_743_" class="st1" points="361.5,411.5 248.4,409.7 231.9,389.1 233.5,387.8 273.5,363.6 "/>
<linearGradient id="XMLID_4_" gradientUnits="userSpaceOnUse" x1="165.21" y1="370" x2="256.86" y2="370">
	<stop  offset="2.043588e-007" style="stop-color:#000000"/>
	<stop  offset="1" style="stop-color:#7B0C7C"/>
	<stop  offset="1" style="stop-color:#770578"/>
</linearGradient>
<polygon id="XMLID_742_" class="st2" points="248.4,409.7 256.9,420.2 233.5,434 165.2,306 231.9,389.1 "/>
<linearGradient id="XMLID_5_" gradientUnits="userSpaceOnUse" x1="114.3" y1="370.64" x2="233.5" y2="370.64">
	<stop  offset="2.043588e-007" style="stop-color:#000000"/>
	<stop  offset="1" style="stop-color:#7B0C7C"/>
	<stop  offset="1" style="stop-color:#770578"/>
</linearGradient>
<polygon id="XMLID_741_" class="st3" points="165.2,306 233.5,434 157.5,434.5 156.6,435.3 114.3,387.5 "/>
<linearGradient id="XMLID_6_" gradientUnits="userSpaceOnUse" x1="93.1" y1="416.28" x2="165.21" y2="416.28">
	<stop  offset="2.043588e-007" style="stop-color:#000000"/>
	<stop  offset="1" style="stop-color:#7B0C7C"/>
	<stop  offset="1" style="stop-color:#770578"/>
</linearGradient>
<polygon id="XMLID_740_" class="st4" points="156.6,435.3 165.2,445 129,451 95.3,451 93.1,450.5 109,381.6 114.3,387.5 "/>
<linearGradient id="XMLID_7_" gradientUnits="userSpaceOnUse" x1="48" y1="475.03" x2="117.47" y2="475.03">
	<stop  offset="2.043588e-007" style="stop-color:#000000"/>
	<stop  offset="1" style="stop-color:#7B0C7C"/>
	<stop  offset="1" style="stop-color:#770578"/>
</linearGradient>
<polygon id="XMLID_739_" class="st5" points="117.5,484.6 116.7,485.5 81.7,530.3 48,475 48,420 48.3,419.7 63.8,434.3 77.9,447.5 
	"/>
<polygon id="XMLID_738_" points="109,381.6 93.1,450.5 77.9,447.5 63.8,434.3 64,434 "/>
<linearGradient id="XMLID_8_" gradientUnits="userSpaceOnUse" x1="-16" y1="500.37" x2="81.67" y2="500.37">
	<stop  offset="2.043588e-007" style="stop-color:#000000"/>
	<stop  offset="1" style="stop-color:#7B0C7C"/>
	<stop  offset="1" style="stop-color:#770578"/>
</linearGradient>
<polygon id="XMLID_737_" class="st6" points="48,475 81.7,530.3 40.7,564 -4.7,566.7 -16,434 "/>
<linearGradient id="XMLID_9_" gradientUnits="userSpaceOnUse" x1="22" y1="419.4" x2="48.25" y2="419.4">
	<stop  offset="2.043588e-007" style="stop-color:#000000"/>
	<stop  offset="1" style="stop-color:#7B0C7C"/>
	<stop  offset="1" style="stop-color:#770578"/>
</linearGradient>
<polygon id="XMLID_736_" class="st7" points="48.3,419.7 48,420 48,475 22,363.8 48,419.5 "/>
<linearGradient id="XMLID_10_" gradientUnits="userSpaceOnUse" x1="-16" y1="419.4" x2="48" y2="419.4">
	<stop  offset="2.043588e-007" style="stop-color:#000000"/>
	<stop  offset="1" style="stop-color:#7B0C7C"/>
	<stop  offset="1" style="stop-color:#770578"/>
</linearGradient>
<polygon id="XMLID_735_" class="st8" points="22,363.8 48,475 -16,434 "/>
<g id="XMLID_706_">
	<line id="XMLID_733_" class="st9" x1="-275.8" y1="-116" x2="-326.7" y2="-34.5"/>
	<polyline id="XMLID_732_" class="st9" points="-275.8,-116 -209.1,-32.9 -192.6,-12.3 -184.2,-1.8 -183,-0.4 	"/>
	<line id="XMLID_731_" class="st9" x1="-283.6" y1="12.5" x2="-207.5" y2="12"/>
	<line id="XMLID_730_" class="st9" x1="-207.5" y1="12" x2="-275.8" y2="-116"/>
	<polyline id="XMLID_729_" class="st9" points="-207.5,12 -184.2,-1.8 -183,-2.5 	"/>
	<line id="XMLID_728_" class="st9" x1="-192.6" y1="-12.3" x2="-79.5" y2="-10.5"/>
	<line id="XMLID_727_" class="st9" x1="-79.5" y1="-10.5" x2="-167.5" y2="-58.4"/>
	<line id="XMLID_726_" class="st9" x1="-167.5" y1="-58.4" x2="-207.5" y2="-34.2"/>
	<polyline id="XMLID_725_" class="st9" points="-167.5,-58.4 -61.8,-10.6 -61.5,-10.5 	"/>
	<polyline id="XMLID_724_" class="st9" points="-62,-10 -79.5,-10 -80,-10 	"/>
	<polyline id="XMLID_723_" class="st9" points="-275.8,23 -284.4,13.3 -326.7,-34.5 -332,-40.4 	"/>
	<line id="XMLID_722_" class="st9" x1="-332" y1="-40.4" x2="-377" y2="12"/>
	<polyline id="XMLID_721_" class="st9" points="-348,29 -345.7,29 -312,29 	"/>
	<line id="XMLID_720_" class="st9" x1="-312" y1="29" x2="-275.8" y2="23"/>
	<polyline id="XMLID_719_" class="st9" points="-332,-40.4 -347.9,28.5 -348,29 	"/>
	<line id="XMLID_718_" class="st9" x1="-393" y1="-2.5" x2="-419" y2="-58.2"/>
	<line id="XMLID_717_" class="st9" x1="-419" y1="-58.2" x2="-457" y2="12"/>
	<line id="XMLID_716_" class="st9" x1="-393" y1="-2" x2="-393" y2="53"/>
	<line id="XMLID_715_" class="st9" x1="-393" y1="53" x2="-419" y2="-58.2"/>
	<polyline id="XMLID_714_" class="st9" points="-393,-2.5 -392.8,-2.3 -377.3,12.3 -363.2,25.5 -323.6,62.6 -322.6,63.5 	"/>
	<line id="XMLID_713_" class="st9" x1="-324.4" y1="63.5" x2="-359.4" y2="108.3"/>
	<line id="XMLID_712_" class="st9" x1="-359.4" y1="108.3" x2="-393" y2="53"/>
	<line id="XMLID_711_" class="st9" x1="-393" y1="53" x2="-457" y2="12"/>
	<line id="XMLID_710_" class="st9" x1="-359.4" y1="108.3" x2="-400.4" y2="142"/>
	<polyline id="XMLID_709_" class="st9" points="-400.4,142 -445.7,144.7 -448.4,144.9 	"/>
	<polyline id="XMLID_708_" class="st9" points="-345.7,29 -347.9,28.5 -363.2,25.5 	"/>
	<polyline id="XMLID_707_" class="st9" points="-445.7,144.9 -445.7,144.7 -457,12 	"/>
</g>
</svg>
