<?xml version="1.0" encoding="utf-8"?>
<!-- Generator: Adobe Illustrator 19.0.0, SVG Export Plug-In . SVG Version: 6.00 Build 0)  -->
<svg version="1.1" id="Cloud" xmlns="http://www.w3.org/2000/svg" xmlns:xlink="http://www.w3.org/1999/xlink" x="0px" y="0px"
	 viewBox="0 0 1280 800" style="enable-background:new 0 0 1280 800;" xml:space="preserve">
<style type="text/css">
	.st0{fill:#B200B7;}
	.st1{fill:#770578;}
	.st2{fill:#EE7BFF;}
	.st3{fill:none;stroke:#B200B7;stroke-width:4;stroke-miterlimit:10;}
	.st4{fill:#CBC5C6;}
	.st5{fill:#A8A9AD;}
	.st6{fill:#838996;}
	.st7{fill:#1F262A;}
	.st8{fill:none;stroke:#CBC5C6;stroke-width:6;stroke-miterlimit:10;}
	.st9{fill:#FFFFFF;}
	.st10{fill:#FF0000;}
	.st11{fill:#8900AA;}
	.st12{fill:#600068;}
</style>
<rect id="XMLID_35_" x="493" y="-128" class="st0" width="104" height="84"/>
<rect id="XMLID_42_" x="596" y="-123" class="st1" width="104" height="84"/>
<path id="XMLID_316_" class="st2" d="M708.8,115.3l-0.5,0c-18.6,0-31.9,5-39.9,12.1l-0.1,0.1c-5.1-4.8-12.6-8-22.3-8.4
	c-0.1-16.5-15.3-25.3-31.5-26.5C635.4,53.5,708.3,61.1,708.8,115.3z"/>
<g id="XMLID_303_">
	<path id="XMLID_313_" class="st3" d="M699.9-144c42.4,0,43-58.3,1.8-60c-0.6,0-1.2,0-1.8,0"/>
	<path id="XMLID_312_" class="st3" d="M701.7-204.1c0-0.2,0-0.4,0-0.6c-0.5-54.3-73.4-61.9-94.2-22.8c-0.1,0.2-0.2,0.4-0.3,0.6"/>
	<path id="XMLID_311_" class="st3" d="M661.2-192.6c8-7.1,21.2-12.1,39.9-12.1"/>
	<path id="XMLID_310_" class="st3" d="M702.2-143c-0.8,0-1.6,0-2.4,0c-23.5,0-44.5,0-63-0.1c-28.9-0.1-51.8-0.3-68.7-0.5
		c-0.1,0-0.3,0-0.4,0"/>
	<path id="XMLID_307_" class="st3" d="M568.3-202.4c1.2-18.1,20.8-26.4,39.1-25.1c16.2,1.2,31.3,10,31.5,26.5c0,0.1,0,0.2,0,0.2"/>
	<path id="XMLID_306_" class="st3" d="M568.3-200.7c0-0.3,0-0.5,0-0.7c0-0.3,0-0.6,0-0.9"/>
	<path id="XMLID_305_" class="st3" d="M636.9-144c33.3,0,41.4-32.6,24.3-48.5c-5.1-4.8-12.6-8-22.3-8.4c-0.7,0-1.3,0-2,0"/>
	<path id="XMLID_304_" class="st3" d="M603.6-179.6c0-12.5-13.1-22.7-29.3-22.7l2.6,0.3c-3,0-5.9,0.2-8.6,0.5
		c-42.5,5.5-42.6,52.3-0.2,57.9c2.7,0.4,5.6,0.6,8.7,0.6"/>
</g>
<rect id="XMLID_269_" x="851.5" y="-86" class="st4" width="99.5" height="64.5"/>
<rect id="XMLID_270_" x="978" y="-77" class="st5" width="87.5" height="49.5"/>
<rect id="XMLID_271_" x="858" y="-190.5" class="st6" width="87" height="74.5"/>
<rect id="XMLID_272_" x="964" y="-197.5" class="st5" width="74" height="72"/>
<rect id="XMLID_274_" x="1061.5" y="-164" class="st7" width="74" height="72"/>
<g id="Dude">
	<g id="XMLID_292_">
		<line id="XMLID_278_" class="st8" x1="672" y1="89" x2="672" y2="98"/>
		<rect id="XMLID_280_" x="659.9" y="97.1" class="st9" width="25.3" height="39.5"/>
		<line id="XMLID_276_" class="st8" x1="655" y1="49" x2="655" y2="26"/>
		<circle id="XMLID_268_" class="st6" cx="672.2" cy="65.2" r="26.2"/>
		<circle id="XMLID_273_" class="st7" cx="672.2" cy="65.2" r="21.1"/>
		<circle id="XMLID_275_" class="st10" cx="672.2" cy="65.2" r="10.8"/>
		<circle id="XMLID_277_" class="st4" cx="654.7" cy="26.2" r="5.1"/>
		<polygon id="XMLID_279_" points="677.9,97.1 672.4,92.1 667,97.1 672.4,102 		"/>
		<path id="XMLID_287_" d="M668.4,139.7l0.2,15.3h26.7l-0.1-0.3l-3.7-15.1l7.3-32c-0.7-8-6.1-10.9-14.6-10.6
			C683.9,116.4,676.9,134.2,668.4,139.7z"/>
		<path id="XMLID_284_" d="M676.6,139.7l-0.2,15.3h-26.4l0.1-0.3l3.6-15.1l-7.2-32c0.7-8,6-10.9,14.5-10.6
			C661.3,116.4,668.2,134.2,676.6,139.7z"/>
		
			<rect id="XMLID_283_" x="671" y="126.2" transform="matrix(0.7071 0.7071 -0.7071 0.7071 287.3183 -438.0961)" width="3" height="3.1"/>
		<g id="XMLID_265_">
			<path id="XMLID_266_" d="M673.4,98.2c0,0,0.1,0.5,0.3,1.3c0.1,0.4,0.2,0.9,0.3,1.5c0.1,0.6,0.3,1.2,0.4,1.9
				c0.6,2.8,1.1,6.5,1.5,10.2c0.2,1.9,0.4,3.7,0.5,5.4c0.1,0.9,0.1,1.7,0.2,2.5c0,0.8,0.1,1.5,0.1,2.2c0,1.4-0.5,2.5-1,3.4
				c-0.1,0.2-0.3,0.4-0.4,0.5c-0.1,0.2-0.2,0.3-0.3,0.4c-0.2,0.2-0.3,0.3-0.3,0.3l-4.4,0c0,0-0.1-0.1-0.3-0.3
				c-0.1-0.1-0.2-0.2-0.3-0.4c-0.1-0.2-0.2-0.3-0.4-0.5c-0.5-0.8-1-2-1-3.4c0-0.7,0.1-1.4,0.1-2.2c0-0.8,0.1-1.6,0.1-2.5
				c0.1-1.7,0.3-3.6,0.5-5.4c0.4-3.7,0.9-7.4,1.5-10.2c0.1-0.7,0.3-1.3,0.4-1.9c0.1-0.6,0.2-1.1,0.3-1.5c0.2-0.8,0.3-1.3,0.3-1.3
				L673.4,98.2z"/>
		</g>
		<circle id="XMLID_281_" class="st9" cx="667.4" cy="69.6" r="3.1"/>
		<circle id="XMLID_285_" class="st9" cx="672.9" cy="73.1" r="1.5"/>
	</g>
</g>
<path id="XMLID_317_" class="st11" d="M708.8,116c41.2,1.7,40.6,60-1.8,60v1c-23.5,0-44.5,0-63-0.1V176c33.3,0,41.4-32.6,24.3-48.5
	l0.1-0.1c8-7.1,21.2-12.1,39.9-12.1l0.5,0c0,0.2,0,0.4,0,0.6V116z"/>
<path id="XMLID_315_" class="st12" d="M646,119c9.7,0.4,17.1,3.7,22.3,8.4c17.1,15.9,9,48.5-24.3,48.5v0.9
	c-28.9-0.1-51.8-0.3-68.7-0.5c-42.4-5.6-42.4-52.4,0.2-57.9c0-0.3,0-0.6,0-0.9c1.2-18.1,20.8-26.4,39.1-25.1
	C630.8,93.7,645.9,102.6,646,119z"/>
</svg>
